# xmcd
#
# Track frame offsets: 
#        150
#        29261
#        55777
#        84525
#        110317
#        131235
#        168892
#        194432
#        218913
#        235931
#
# Disc length: 3489 seconds
#
# Revision: 0
# Processed by: cddbd v1.5.2PL0 Copyright (c) Steve Scherf et al.
# Submitted via: ExactAudioCopy v1.0b3
#
DISCID=850d9f0a
DTITLE=Various Artist - Dau Ngay Xua Rat Xua
DYEAR=1994
DGENRE=
TTITLE0=Thuy Duong - Buoi sang o phi truong
TTITLE1=Ngoc Thuy - Co em
TTITLE2=Bao Yen - Huong xua
TTITLE3=Hong Nhung - Khuc ca moi
TTITLE4=Anh Tuyet - Khi tro lai truong cu
TTITLE5=Hong Nhung - Luc bat xa nguoi
TTITLE6=Bao Yen - Rat Hue
TTITLE7=Hong Nhung - Mai sau
TTITLE8=Anh Tuyet - Thieu nu
TTITLE9=Thu Ha - Tung xung tinh yeu
EXTD=
EXTT0=
EXTT1=
EXTT2=
EXTT3=
EXTT4=
EXTT5=
EXTT6=
EXTT7=
EXTT8=
EXTT9=
PLAYORDER=
